<svg width="20" height="21" viewBox="0 0 20 21" fill="none" xmlns="http://www.w3.org/2000/svg">
<path d="M3.025 19.3173C2.99074 19.4639 2.99012 19.6165 3.02319 19.7634C3.05627 19.9104 3.12218 20.0479 3.21598 20.1658C3.30978 20.2836 3.42904 20.3787 3.56482 20.4439C3.7006 20.5091 3.84937 20.5427 4 20.5423C4.19753 20.5423 4.39065 20.4838 4.555 20.3743L10 16.7443L15.445 20.3743C15.6153 20.4873 15.8162 20.5456 16.0206 20.5411C16.225 20.5366 16.4232 20.4696 16.5884 20.3492C16.7536 20.2287 16.878 20.0606 16.9448 19.8673C17.0116 19.6741 17.0176 19.465 16.962 19.2683L15.133 12.8683L19.669 8.78625C19.8143 8.65544 19.918 8.48491 19.9674 8.29576C20.0168 8.10661 20.0097 7.90713 19.9469 7.72199C19.8841 7.53685 19.7684 7.37417 19.6142 7.25408C19.4599 7.13398 19.2739 7.06172 19.079 7.04625L13.378 6.59225L10.911 1.13125C10.8324 0.955363 10.7046 0.805972 10.543 0.701108C10.3814 0.596244 10.193 0.540389 10.0003 0.540283C9.80768 0.540178 9.61913 0.595826 9.45742 0.700513C9.29571 0.805199 9.16776 0.95445 9.089 1.13025L6.622 6.59225L0.920996 7.04525C0.729451 7.06043 0.546334 7.13046 0.393551 7.24698C0.240768 7.3635 0.124789 7.52157 0.0594889 7.70228C-0.0058109 7.88299 -0.0176665 8.07868 0.0253407 8.26595C0.0683478 8.45322 0.164396 8.62414 0.301996 8.75825L4.516 12.8653L3.025 19.3173ZM10 3.97125L12.042 8.49225L12.63 8.53925H12.631L16.603 8.85425L13.332 11.7983L13.331 11.8003L12.868 12.2163L13.039 12.8133V12.8163L14.292 17.2013L10 14.3403V3.97125Z" fill="#FFCB45"/>
</svg>
