<svg width="20" height="20" viewBox="0 0 20 20" fill="none" xmlns="http://www.w3.org/2000/svg">
<path d="M19.2836 6.81808L13.3328 5.95323L10.6727 0.560263C10.6 0.412606 10.4805 0.293075 10.3328 0.220419C9.9625 0.0376063 9.5125 0.18995 9.32734 0.560263L6.66719 5.95323L0.716405 6.81808C0.552342 6.84152 0.402342 6.91886 0.287498 7.03605C0.148658 7.17875 0.0721514 7.37074 0.0747883 7.56982C0.0774251 7.7689 0.15899 7.95879 0.301561 8.09777L4.60703 12.2954L3.58984 18.2228C3.56599 18.3607 3.58125 18.5025 3.63389 18.6321C3.68653 18.7618 3.77444 18.8741 3.88766 18.9563C4.00088 19.0385 4.13487 19.0874 4.27445 19.0974C4.41403 19.1073 4.5536 19.078 4.67734 19.0126L10 16.2142L15.3227 19.0126C15.468 19.09 15.6367 19.1157 15.7984 19.0876C16.2063 19.0173 16.4805 18.6306 16.4102 18.2228L15.393 12.2954L19.6984 8.09777C19.8156 7.98292 19.893 7.83292 19.9164 7.66886C19.9797 7.2587 19.6938 6.87902 19.2836 6.81808Z" fill="#FFCB45"/>
</svg>
